<svg xmlns="http://www.w3.org/2000/svg" xmlns:xlink="http://www.w3.org/1999/xlink" width="820.731" height="345.702" viewBox="0 0 820.731 345.702"><defs><linearGradient id="linear-gradient" y1="-0.106" x2="1" y2="-0.106" gradientUnits="objectBoundingBox"><stop offset="0" stop-color="#f05954"></stop><stop offset="1" stop-color="#ef2e2e"></stop></linearGradient><linearGradient id="linear-gradient-2" y1="0.088" x2="1" y2="0.088" gradientUnits="objectBoundingBox"><stop offset="0" stop-color="#feca42"></stop><stop offset="0.264" stop-color="#fbbd45"></stop><stop offset="0.648" stop-color="#f8af47"></stop><stop offset="1" stop-color="#f7ab48"></stop></linearGradient><linearGradient id="linear-gradient-3" y1="0.384" x2="1" y2="0.384" gradientUnits="objectBoundingBox"><stop offset="0" stop-color="#405bdd"></stop><stop offset="0.207" stop-color="#4961e6"></stop><stop offset="0.621" stop-color="#566af4"></stop><stop offset="1" stop-color="#5a6df8"></stop></linearGradient><linearGradient id="linear-gradient-4" x1="0.5" y1="-0.412" x2="0.5" y2="0.588" gradientUnits="objectBoundingBox"><stop offset="0" stop-color="#2bb90f"></stop><stop offset="0.251" stop-color="#37c319"></stop><stop offset="0.641" stop-color="#45cd24"></stop><stop offset="1" stop-color="#49d128"></stop></linearGradient></defs><g id="New_logo_-_svg" data-name="New logo - svg" transform="translate(-590.269 -418.099)"><path id="Subtraction_12" data-name="Subtraction 12" d="M-5627.2-298.3h0l-25.1-57.9a222.508,222.508,0,0,0,27.513-13.549A127.626,127.626,0,0,0-5600.8-388.1L-5674-576.3h79.6l31.1,84.3,9.4,31.9a471.227,471.227,0,0,0,20.688-52.813c5.626-17.035,11.162-35.992,18.512-63.387h60.833a106.139,106.139,0,0,0-10.531,9.1,110.76,110.76,0,0,0-23.9,35.44c-.884,2.071-1.727,4.211-2.5,6.359-5.706,15.817-8.6,33.784-8.6,53.4v.612c0,.093,0,.184,0,.277v.006c0,.06,0,.121,0,.181v.277c0,.063,0,.125,0,.188v.032c0,.072,0,.144,0,.216s0,.146,0,.217v.227l0,.156v.073l0,.215c0,.07,0,.135,0,.2v.038l0,.2,0,.12,0,.122,0,.1,0,.1c0,.085,0,.173.005.258l0,.091V-468l0,.132,0,.132,0,.088,0,.088v.048c0,.076,0,.15.005.224l0,.081,0,.087c0,.091,0,.18.008.271l0,.085,0,.083,0,.112.005.168c0,.052,0,.1,0,.156,0,.1.006.189.009.284l0,.076,0,.076.01.293,0,.075,0,.07c0,.1.007.192.011.29l.006.146.007.171,0,.131,0,.064,0,.064.007.158.006.153,0,.062,0,.058.007.16.007.162c0,.022,0,.043,0,.065v.04l.009.191.007.141,0,.048,0,.048.008.169.009.179,0,.037v.034l0,.084.015.277v.034l0,.034.011.2.009.168v.042c.007.131.015.26.022.391,0,.011,0,.021,0,.03a156.964,156.964,0,0,0,3.2,23.881l.048.22.034.155,0,.015,0,.015.007.031q.034.158.07.316c0,.017.007.035.011.052l.016.07c.014.064.029.129.043.193l.015.065c.005.026.011.05.017.075l.014.06c.007.033.015.066.022.1l.015.065.02.087.01.043.01.043.04.174.027.12.013.055.013.055,0,.012c.019.081.037.16.056.24l0,.021.015.065.014.059c.021.088.042.178.063.266l.016.066.016.066c.021.087.04.169.061.256l.009.038.008.032.016.066.011.045.041.169.011.043.009.038.008.032,0,.021.011.045.061.249.013.052.024.1.026.105.033.133.018.072.021.086.008.032.022.09.027.108.011.043.009.037.021.084c.019.074.038.15.057.224l.026.1.018.068c.011.045.022.089.034.134l.008.03.013.05.025.1.022.087.032.121.021.081.032.122.018.069.029.109.022.086.025.1.026.1c.017.063.034.127.051.19l.027.1.029.106.023.089.023.085c.02.074.041.149.061.223l.044.162q.031.117.064.233l.042.151.034.122.034.121c.013.047.026.094.039.141l.036.129.037.13c.012.041.023.083.035.123l.005.018.023.08.05.176.016.056.015.052.083.289.012.042.007.025.008.028.031.107.053.184.013.043.006.022.008.029.091.309c.007.024.014.047.021.071l.016.053.084.282.014.046c.026.087.052.173.078.259l.036.119c.5,1.666,1.043,3.327,1.6,4.936l.007.019,0,.009.051.147.069.2.013.036.055.157,0,.012.058.164.01.028.01.028.054.151.031.087.027.075.012.034.012.034.093.26.014.038.016.043.017.046.076.209c-1.873,3.873-3.762,7.635-5.618,11.181-14.745,27.99-31.889,50.217-52.411,67.95a198.761,198.761,0,0,1-16.763,12.98,209.308,209.308,0,0,1-18.532,11.433c-6.484,3.552-13.367,6.888-20.457,9.914-7.129,3.043-14.711,5.878-22.535,8.424Zm150.084-152.9v0h0a150.3,150.3,0,0,1-1.38-19.409v-.066c0-.082,0-.164,0-.246v-.706c0-.124,0-.242,0-.365v-.142c0-.1,0-.2,0-.3v-.139c0-.106,0-.209,0-.312,0-.051,0-.107,0-.158q0-.153,0-.306v-.138l0-.177v-.272c.2-15.846,2.55-30.333,6.992-43.06l.012-.034.056-.158.05-.142.029-.083.027-.077.029-.082.029-.082.038-.106.042-.116.011-.029.015-.042a95.9,95.9,0,0,1,11-21.718l.008-.012.006-.009.013-.019.014-.021c.034-.05.068-.1.1-.149l.039-.056.049-.071.1-.138.067-.1.034-.05.007-.01.008-.012.076-.109.113-.162.029-.041.05-.071c.21-.3.417-.587.633-.885l.006-.008.008-.011a85.545,85.545,0,0,1,15.448-16.3l.282-.227.007-.006c.283-.227.575-.458.869-.688l0,0,.053-.042.068-.053.147-.114.05-.039.234-.181.031-.024.021-.017.252-.192.015-.011.014-.011q.285-.216.572-.431l.058-.043.223-.166.038-.028.038-.028.209-.154.037-.027.045-.033.228-.167.039-.029.012-.009q.288-.209.577-.416l.033-.023.029-.021.223-.158.047-.033.033-.023.146-.1.075-.053.03-.021.035-.024.269-.188.01-.007.006,0c.2-.14.4-.278.6-.416l.008-.005c-11.472,35.348-25.129,76.167-39.434,110.918Z" transform="translate(6265 1061.6)" stroke="rgba(0,0,0,0)" stroke-miterlimit="10" stroke-width="1" fill="url(#linear-gradient)"></path><path id="Subtraction_14" data-name="Subtraction 14" d="M-5260-400c-16.964,0-32.417-2.39-45.93-7.1a92.282,92.282,0,0,1-34.257-20.709,89.085,89.085,0,0,1-21.414-33.4c-4.91-13.26-7.4-28.463-7.4-45.186.024-17.138,2.528-32.692,7.44-46.231a90.843,90.843,0,0,1,21.41-34.043,91.659,91.659,0,0,1,34.234-21.032c13.49-4.774,28.938-7.194,45.916-7.194s32.43,2.425,45.93,7.209a91.8,91.8,0,0,1,34.257,21.054c1.96,1.937,3.85,4,5.616,6.122a144.67,144.67,0,0,0-9.144,32.03,229.884,229.884,0,0,0-3.06,38.786,213.051,213.051,0,0,0,3.544,40.013,143.21,143.21,0,0,0,10.6,33.527,84.657,84.657,0,0,1-7.518,8.348,92.161,92.161,0,0,1-34.252,20.709C-5227.544-402.39-5243.012-400-5260-400Zm0-154.5a36.85,36.85,0,0,0-14.067,2.425,25.456,25.456,0,0,0-5.748,3.249,25.622,25.622,0,0,0-4.823,4.8,32.494,32.494,0,0,0-3.841,6.5,48.215,48.215,0,0,0-2.81,8.341A97.659,97.659,0,0,0-5293.6-506.4a90.607,90.607,0,0,0,2.268,21.742,45.137,45.137,0,0,0,2.773,7.974,30.734,30.734,0,0,0,3.809,6.221,24.936,24.936,0,0,0,4.8,4.606,25.659,25.659,0,0,0,5.755,3.122A38.644,38.644,0,0,0-5260-460.4c11.127,0,19.186-3.292,24.637-10.063a30.938,30.938,0,0,0,3.843-6.221,44.9,44.9,0,0,0,2.81-7.974A89.18,89.18,0,0,0-5226.4-506.4a97.144,97.144,0,0,0-2.326-22.787,48.188,48.188,0,0,0-2.821-8.341,32.626,32.626,0,0,0-3.854-6.5C-5240.852-551.074-5248.9-554.5-5260-554.5Zm101.113,94.615v0c-4.387-14.438-6.612-31.231-6.612-49.912a227.372,227.372,0,0,1,1.357-25.543,154.853,154.853,0,0,1,3.979-21.778c.625,1.5,1.218,3.024,1.765,4.532,4.91,13.539,7.4,29.079,7.4,46.189,0,16.725-2.485,31.928-7.385,45.186-.159.429-.327.875-.5,1.326Z" transform="translate(6155.5 1096)" stroke="rgba(0,0,0,0)" stroke-miterlimit="10" stroke-width="1" fill="url(#linear-gradient-2)"></path><path id="Subtraction_16" data-name="Subtraction 16" d="M-5288.1-421.1a75.685,75.685,0,0,1-30.781-6.258,70.669,70.669,0,0,1-25.794-19.58c-7.688-9.2-13.653-20.673-17.731-34.11-4.375-14.42-6.593-31.193-6.593-49.853a227.345,227.345,0,0,1,1.355-25.533,155.143,155.143,0,0,1,3.975-21.771,106.8,106.8,0,0,1,6.461-18.119A77.758,77.758,0,0,1-5348.4-610.9c12.887-16.655,31.728-25.1,56-25.1,12.991,0,23.469,1.688,32.976,5.312a74.532,74.532,0,0,1,15.259,7.977A101.033,101.033,0,0,1-5229-610v-88.5h77.1v75.31q-.25.244-.5.49a111.858,111.858,0,0,0-26.4,41.8c-5.707,15.817-8.6,33.784-8.6,53.4,0,19.343,3.016,37.183,8.962,53.025A109.958,109.958,0,0,0-5152.3-433.9l.314.3.043.042.043.041v8.612h-77v-23.4a158.347,158.347,0,0,1-11.712,11.591,63.354,63.354,0,0,1-12.3,8.533,57.551,57.551,0,0,1-15.1,5.272A98.843,98.843,0,0,1-5288.1-421.1Zm24.2-150.2a32.325,32.325,0,0,0-12.694,2.3,22.522,22.522,0,0,0-9.207,7.207,34.116,34.116,0,0,0-5.605,12.551A78.1,78.1,0,0,0-5293.3-530.9a92.59,92.59,0,0,0,2.14,20.814,41.27,41.27,0,0,0,6.049,14.3,24.689,24.689,0,0,0,9.629,8.242A29.866,29.866,0,0,0-5262.6-484.9a47.732,47.732,0,0,0,10.889-1.129,32.135,32.135,0,0,0,8.8-3.408,34.476,34.476,0,0,0,7.354-5.715A58.046,58.046,0,0,0-5229-503.2v-48.1c-5.271-6.821-10.512-11.711-16.023-14.948A36.248,36.248,0,0,0-5263.9-571.3Zm112,104.284h0v0c-9.686-16.482-14.6-36.83-14.6-60.48,0-24.2,4.912-44.993,14.6-61.8Z" transform="translate(6359 1117.099)" stroke="rgba(0,0,0,0)" stroke-miterlimit="10" stroke-width="1" fill="url(#linear-gradient-3)"></path><g id="Group_2532" data-name="Group 2532"><g id="Group_2531" data-name="Group 2531"><path id="Subtraction_17" data-name="Subtraction 17" d="M-5239.1-462.6c-16.989,0-32.457-2.39-45.973-7.1a92.168,92.168,0,0,1-34.252-20.708,89.054,89.054,0,0,1-21.391-33.4c-4.9-13.258-7.384-28.461-7.384-45.186,0-17.136,2.489-32.69,7.4-46.231a90.731,90.731,0,0,1,21.414-34.044,91.734,91.734,0,0,1,34.258-21.031c13.5-4.773,28.949-7.194,45.93-7.194s32.43,2.425,45.93,7.208a91.8,91.8,0,0,1,34.257,21.055,90.834,90.834,0,0,1,21.414,34.048c4.909,13.536,7.4,29.077,7.4,46.189,0,16.725-2.484,31.928-7.384,45.186a89.053,89.053,0,0,1-21.391,33.4,92.168,92.168,0,0,1-34.252,20.708C-5206.644-464.99-5222.111-462.6-5239.1-462.6Zm0-154.5c-11.1,0-19.15,3.426-24.6,10.475a32.573,32.573,0,0,0-3.853,6.5,48.214,48.214,0,0,0-2.822,8.34A97.194,97.194,0,0,0-5272.7-569c-.053,18.354,3.426,30.792,10.636,38.023,5.353,5.368,12.864,7.977,22.964,7.977,11.126,0,19.185-3.292,24.637-10.063a30.949,30.949,0,0,0,3.842-6.222,44.805,44.805,0,0,0,2.81-7.974A89.16,89.16,0,0,0-5205.5-569a97.193,97.193,0,0,0-2.325-22.788,48.214,48.214,0,0,0-2.822-8.34,32.555,32.555,0,0,0-3.853-6.5C-5219.95-613.674-5228-617.1-5239.1-617.1Z" transform="translate(6540.6 1158.6)" stroke="rgba(0,0,0,0)" stroke-miterlimit="10" stroke-width="1" fill="url(#linear-gradient-4)"></path></g></g></g></svg>